<svg xmlns="http://www.w3.org/2000/svg"><symbol viewBox="0 0 512 512" id="adjust"><path d="M8 256c0 136.966 111.033 248 248 248s248-111.034 248-248S392.966 8 256 8 8 119.033 8 256zm248 184V72c101.705.0 184 82.311 184 184 0 101.705-82.311 184-184 184z"/></symbol><symbol viewBox="0 0 448 512" id="angle-double-right"><path d="M224.3 273l-136 136c-9.4 9.4-24.6 9.4-33.9.0l-22.6-22.6c-9.4-9.4-9.4-24.6.0-33.9l96.4-96.4-96.4-96.4c-9.4-9.4-9.4-24.6.0-33.9L54.3 103c9.4-9.4 24.6-9.4 33.9.0l136 136c9.5 9.4 9.5 24.6.1 34zm192-34-136-136c-9.4-9.4-24.6-9.4-33.9.0l-22.6 22.6c-9.4 9.4-9.4 24.6.0 33.9l96.4 96.4-96.4 96.4c-9.4 9.4-9.4 24.6.0 33.9l22.6 22.6c9.4 9.4 24.6 9.4 33.9.0l136-136c9.4-9.2 9.4-24.4.0-33.8z"/></symbol><symbol viewBox="0 0 256 512" id="angle-right"><path d="M224.3 273l-136 136c-9.4 9.4-24.6 9.4-33.9.0l-22.6-22.6c-9.4-9.4-9.4-24.6.0-33.9l96.4-96.4-96.4-96.4c-9.4-9.4-9.4-24.6.0-33.9L54.3 103c9.4-9.4 24.6-9.4 33.9.0l136 136c9.5 9.4 9.5 24.6.1 34z"/></symbol><symbol viewBox="0 0 448 512" id="hashtag"><path d="M440.667 182.109l7.143-40c1.313-7.355-4.342-14.109-11.813-14.109h-74.81l14.623-81.891C377.123 38.754 371.468 32 363.997 32h-40.632a12 12 0 00-11.813 9.891L296.175 128H197.54l14.623-81.891C213.477 38.754 207.822 32 200.35 32h-40.632a12 12 0 00-11.813 9.891L132.528 128H53.432a12 12 0 00-11.813 9.891l-7.143 40C33.163 185.246 38.818 192 46.289 192h74.81L98.242 320H19.146a12 12 0 00-11.813 9.891l-7.143 40C-1.123 377.246 4.532 384 12.003 384h74.81L72.19 465.891C70.877 473.246 76.532 480 84.003 480h40.632a12 12 0 0011.813-9.891L151.826 384h98.634l-14.623 81.891C234.523 473.246 240.178 480 247.65 480h40.632a12 12 0 0011.813-9.891L315.472 384h79.096a12 12 0 0011.813-9.891l7.143-40c1.313-7.355-4.342-14.109-11.813-14.109h-74.81l22.857-128h79.096a12 12 0 0011.813-9.891zM261.889 320h-98.634l22.857-128h98.634l-22.857 128z"/></symbol><symbol viewBox="0 0 512 512" id="search"><path d="M505 442.7 405.3 343c-4.5-4.5-10.6-7-17-7H372c27.6-35.3 44-79.7 44-128C416 93.1 322.9.0 208 0S0 93.1.0 208s93.1 208 208 208c48.3.0 92.7-16.4 128-44v16.3c0 6.4 2.5 12.5 7 17l99.7 99.7c9.4 9.4 24.6 9.4 33.9.0l28.3-28.3c9.4-9.4 9.4-24.6.1-34zM208 336c-70.7.0-128-57.2-128-128 0-70.7 57.2-128 128-128 70.7.0 128 57.2 128 128 0 70.7-57.2 128-128 128z"/></symbol><symbol viewBox="0 0 496 512" id="github"><path d="M165.9 397.4c0 2-2.3 3.6-5.2 3.6-3.3.3-5.6-1.3-5.6-3.6.0-2 2.3-3.6 5.2-3.6 3-.3 5.6 1.3 5.6 3.6zm-31.1-4.5c-.7 2 1.3 4.3 4.3 4.9 2.6 1 5.6.0 6.2-2s-1.3-4.3-4.3-5.2c-2.6-.7-5.5.3-6.2 2.3zm44.2-1.7c-2.9.7-4.9 2.6-4.6 4.9.3 2 2.9 3.3 5.9 2.6 2.9-.7 4.9-2.6 4.6-4.6-.3-1.9-3-3.2-5.9-2.9zM244.8 8C106.1 8 0 113.3.0 252c0 110.9 69.8 205.8 169.5 239.2 12.8 2.3 17.3-5.6 17.3-12.1.0-6.2-.3-40.4-.3-61.4.0.0-70 15-84.7-29.8.0.0-11.4-29.1-27.8-36.6.0.0-22.9-15.7 1.6-15.4.0.0 24.9 2 38.6 25.8 21.9 38.6 58.6 27.5 72.9 20.9 2.3-16 8.8-27.1 16-33.7-55.9-6.2-112.3-14.3-112.3-110.5.0-27.5 7.6-41.3 23.6-58.9-2.6-6.5-11.1-33.3 2.6-67.9 20.9-6.5 69 27 69 27 20-5.6 41.5-8.5 62.8-8.5s42.8 2.9 62.8 8.5c0 0 48.1-33.6 69-27 13.7 34.7 5.2 61.4 2.6 67.9 16 17.7 25.8 31.5 25.8 58.9.0 96.5-58.9 104.2-114.8 110.5 9.2 7.9 17 22.9 17 46.4.0 33.7-.3 75.4-.3 83.6.0 6.5 4.6 14.4 17.3 12.1C428.2 457.8 496 362.9 496 252 496 113.3 383.5 8 244.8 8zM97.2 352.9c-1.3 1-1 3.3.7 5.2 1.6 1.6 3.9 2.3 5.2 1 1.3-1 1-3.3-.7-5.2-1.6-1.6-3.9-2.3-5.2-1zm-10.8-8.1c-.7 1.3.3 2.9 2.3 3.9 1.6 1 3.6.7 4.3-.7.7-1.3-.3-2.9-2.3-3.9-2-.6-3.6-.3-4.3.7zm32.4 35.6c-1.6 1.3-1 4.3 1.3 6.2 2.3 2.3 5.2 2.6 6.5 1 1.3-1.3.7-4.3-1.3-6.2-2.2-2.3-5.2-2.6-6.5-1zm-11.4-14.7c-1.6 1-1.6 3.6.0 5.9 1.6 2.3 4.3 3.3 5.6 2.3 1.6-1.3 1.6-3.9.0-6.2-1.4-2.3-4-3.3-5.6-2z"/></symbol><symbol viewBox="0 0 448 512" id="linkedin"><path d="M416 32H31.9C14.3 32 0 46.5.0 64.3v383.4C0 465.5 14.3 480 31.9 480H416c17.6.0 32-14.5 32-32.3V64.3c0-17.8-14.4-32.3-32-32.3zM135.4 416H69V202.2h66.5V416zm-33.2-243c-21.3.0-38.5-17.3-38.5-38.5S80.9 96 102.2 96c21.2.0 38.5 17.3 38.5 38.5.0 21.3-17.2 38.5-38.5 38.5zm282.1 243h-66.4V312c0-24.8-.5-56.7-34.5-56.7-34.6.0-39.9 27-39.9 54.9V416h-66.4V202.2h63.7v29.2h.9c8.9-16.8 30.6-34.5 62.9-34.5 67.2.0 79.7 44.3 79.7 101.9V416z"/></symbol><symbol viewBox="0 0 245.371 220.736" id="itch"><path d="M31.99 1.365C21.287 7.72.2 31.945.0 38.298v10.516C0 62.144 12.46 73.86 23.773 73.86c13.584.0 24.902-11.258 24.903-24.62.0 13.362 10.93 24.62 24.515 24.62 13.586.0 24.165-11.258 24.165-24.62.0 13.362 11.622 24.62 25.207 24.62h.246c13.586.0 25.208-11.258 25.208-24.62.0 13.362 10.58 24.62 24.164 24.62 13.585.0 24.515-11.258 24.515-24.62.0 13.362 11.32 24.62 24.903 24.62 11.313.0 23.773-11.714 23.773-25.046V38.298c-.2-6.354-21.287-30.58-31.988-36.933C180.118.197 157.056-.005 122.685.0c-34.37.003-81.228.54-90.697 1.365zm65.194 66.217a28.025 28.025.0 01-4.78 6.155c-5.128 5.014-12.157 8.122-19.906 8.122A28.482 28.482.0 0152.55 73.733c-1.858-1.82-3.27-3.766-4.563-6.032l-.006.004c-1.292 2.27-3.092 4.215-4.954 6.037a28.5 28.5.0 01-19.948 8.12c-.934.0-1.906-.258-2.692-.528-1.092 11.372-1.553 22.24-1.716 30.164l-.002.045c-.02 4.024-.04 7.333-.06 11.93.21 23.86-2.363 77.334 10.52 90.473 19.964 4.655 56.7 6.775 93.555 6.788h.006c36.854-.013 73.59-2.133 93.554-6.788 12.883-13.14 10.31-66.614 10.52-90.474-.022-4.596-.04-7.905-.06-11.93l-.003-.045c-.162-7.926-.623-18.793-1.715-30.165-.786.27-1.757.528-2.692.528a28.5 28.5.0 01-19.948-8.12c-1.862-1.822-3.662-3.766-4.955-6.037l-.006-.004c-1.294 2.266-2.705 4.213-4.563 6.032a28.48 28.48.0 01-19.947 8.125c-7.748.0-14.778-3.11-19.906-8.123a28.025 28.025.0 01-4.78-6.155 27.99 27.99.0 01-4.736 6.155 28.49 28.49.0 01-19.95 8.124c-.27.0-.54-.012-.81-.02h-.007c-.27.008-.54.02-.813.02a28.49 28.49.0 01-19.95-8.123 27.992 27.992.0 01-4.736-6.155zm-20.486 26.49-.002.01h.015c8.113.017 15.32.0 24.25 9.746 7.028-.737 14.372-1.105 21.722-1.094h.006c7.35-.01 14.694.357 21.723 1.094 8.93-9.747 16.137-9.73 24.25-9.746h.014l-.002-.01c3.833.0 19.166.0 29.85 30.007L210 165.244c8.504 30.624-2.723 31.373-16.727 31.4-20.768-.773-32.267-15.855-32.267-30.935-11.496 1.884-24.907 2.826-38.318 2.827h-.006c-13.412.0-26.823-.943-38.318-2.827.0 15.08-11.5 30.162-32.267 30.935-14.004-.027-25.23-.775-16.726-31.4L46.85 124.08C57.534 94.073 72.867 94.073 76.7 94.073zm45.985 23.582v.006c-.02.02-21.863 20.08-25.79 27.215l14.304-.573v12.474c0 .584 5.74.346 11.486.08h.006c5.744.266 11.485.504 11.485-.08v-12.474l14.304.573c-3.928-7.135-25.79-27.215-25.79-27.215v-.006l-.003.002z" color="#000"/></symbol></svg>